<?xml version="1.0" encoding="UTF-8"?>
<svg xmlns="http://www.w3.org/2000/svg" xmlns:xlink="http://www.w3.org/1999/xlink" id="Camada_1" version="1.1" viewBox="0 0 1920 396">
  <defs>
    <style>
      .st0 {
        fill: url(#Gradiente_sem_nome_8);
      }

      .st1 {
        fill: #63bbf2;
      }

      .st2 {
        fill: #fff;
      }

      .st3 {
        fill: #fcfeff;
      }
    </style>
    <linearGradient id="Gradiente_sem_nome_8" data-name="Gradiente sem nome 8" x1="1390.1" y1="74.6" x2="1651.2" y2="375.8" gradientUnits="userSpaceOnUse">
      <stop offset="0" stop-color="#63bbf2"></stop>
      <stop offset=".1" stop-color="#63b4f2"></stop>
      <stop offset=".3" stop-color="#639af2"></stop>
      <stop offset=".4" stop-color="#6387f2"></stop>
      <stop offset=".6" stop-color="#637cf2"></stop>
      <stop offset=".8" stop-color="#6379f2"></stop>
    </linearGradient>
  </defs>
  <g>
    <rect class="st0" x="1365.1" y="66.1" width="306.2" height="312.7" rx="107.5" ry="107.5"></rect>
    <path class="st1" d="M1671.9,271.3v-9c-23.2,14.7-45.7,37.5-63.6,66.5-9.7,15.8-17.2,32-22.5,47.9,49.1-9.9,86.1-53.3,86.1-105.3Z"></path>
    <g>
      <path class="st3" d="M1567.1,161.4h-89.7c-10.3,0-18.7,8.4-18.7,18.7v89.7c-18.5,0-33.8-13.4-36.8-31.1-.4-2-.5-4.1-.5-6.3v-71c0-20.6,16.7-37.3,37.3-37.3h71c2.1,0,4.2.2,6.3.5,17.6,3,31.1,18.3,31.1,36.8Z"></path>
      <path class="st3" d="M1600.6,319.5h-118.7c-33.3,0-60.4-27-60.4-60.4v-14.3c0,2.1.2,4.2.5,6.3,3,17.6,18.3,31.1,36.8,31.1h89.7c9.4.1,18,3.8,24.5,9.7l.3.3c.6.5,1.2,1.1,1.7,1.7l25.6,25.6Z"></path>
      <path class="st3" d="M1616.9,184.5v118.7l-27.8-27.8c-5.9-6.6-9.5-15.3-9.5-24.9v-89.1c0-18.5-13.4-33.8-31.1-36.8-2-.4-4.1-.5-6.3-.5h14.3c33.3,0,60.4,27,60.4,60.4Z"></path>
    </g>
  </g>
  <path class="st2" d="M63.7,192.5h19c18.2,0,33.8-7.3,48.1-30.6l36.4-63h59.1l-57.5,92.7c-7.2,11-14.4,18.3-20.7,24.7,6.8,5.5,13.9,13.2,20.7,23.3l68.8,103.7h-59.5l-47.3-74c-13.9-21.9-28.7-30.1-47.3-30.1h-19.8v104.1H11.3V9.9h52.3v182.6Z"></path>
  <path class="st2" d="M245.6,209.7c0-70.3,40.5-111.8,120.7-111.8s121.6,41.5,121.6,111.8v21.2c0,70.3-41,111.4-121.6,111.4s-120.7-41-120.7-111.4v-21.2ZM435.2,208.8c0-45.1-27-64.9-69.2-64.9s-68.4,20.3-68.4,64.9v22.5c0,45.1,27,65.4,69.7,65.4s68-20.3,68-65.4v-22.5Z"></path>
  <path class="st2" d="M587.6,343.2h-52.3V127c30.4-17.1,71.3-29.2,112.7-29.2,79.8,0,109.3,33.3,109.3,101.4v144h-52.8v-140.3c0-40.7-18.2-57.9-62.9-57.9s-38,3.2-54,10.6v187.5Z"></path>
  <path class="st2" d="M867,343.2h-52.3V127c30.4-17.1,71.3-29.2,112.7-29.2,79.8,0,109.3,33.3,109.3,101.4v144h-52.8v-140.3c0-40.7-18.2-57.9-62.9-57.9s-38,3.2-54,10.6v187.5Z"></path>
  <path class="st2" d="M1137.2,243.9c4.2,39.2,32.9,54.6,78.9,54.6s54.9-4.5,78.5-16.2v45.5c-24.9,9.9-51.9,14.4-78.9,14.4-89.1,0-131.7-40.6-131.7-110.9v-22.5c0-70.3,42.6-110.9,121.6-110.9s107.2,39.2,107.2,82.1-25.8,64-70.9,64h-104.7ZM1136.4,202.4h86.1c25.3,0,37.1-4.5,37.1-22.5s-17.3-37.9-54.5-37.9-66.7,19.8-68.8,60.4Z"></path>
  <path class="st2" d="M1770.6,97.8V26.7h56.6v71.1h80.8v47.1h-80.8v120.1c0,21.7,10,30.9,37,30.9s32.9-1.8,43.8-5.1v43.4c-14.6,5.5-37.4,8.3-59.8,8.3-55.7,0-77.6-28.2-77.6-74.8v-122.8h-48.4v-47.1h48.4Z"></path>
</svg>
